<svg width="2494" height="398" viewBox="0 0 2494 398" fill="none" xmlns="http://www.w3.org/2000/svg">
<g clip-path="url(#clip0_623_788)">
<path d="M1714.38 16.9833C1754.52 11.5606 1794.95 20.5032 1830.02 40.397L1819.08 77.0005L1861.46 75.844C1873.62 96.1669 1882.34 119.394 1891.93 141.047L1939.06 247.612C1965.34 191.351 1994.43 137.074 2015.99 78.6797C2031.19 77.9334 2046.46 78.947 2061.66 79.5502C2045.87 95.0909 2035.89 117.951 2026.27 137.683C1996.61 198.559 1949.54 336.994 1898.49 375.575C1885.43 385.457 1866.31 396.613 1849.15 393.597C1843.31 392.565 1837.56 389.48 1834.84 383.94C1832.24 378.622 1833.11 375.575 1834.48 370.296C1842.04 362.64 1849.94 363.741 1859.6 360.302C1889.47 349.668 1908.99 311.914 1922.66 285.602L1865.69 170.251C1849.84 131.321 1835.67 84.4506 1797.06 62.3367C1772.49 48.2699 1733.45 40.5835 1705.87 49.209C1693.82 52.9837 1679.18 61.0059 1673.36 72.8215C1669.21 81.2479 1666.18 93.3373 1670.47 102.236C1683.85 130.028 1754.58 140.326 1782.14 152.478C1801.61 161.053 1820.28 173.522 1827.67 194.46C1834.36 213.471 1831.98 234.466 1822.68 252.189C1811.91 272.742 1795.56 283.015 1773.52 289.141C1726.58 302.194 1672.07 295.726 1629.84 271.548C1629.49 258.837 1630.34 245.939 1630.71 233.222C1667.29 249.975 1706.37 266.094 1747.57 260.765C1762.69 258.806 1779.17 251.928 1788.48 239.341C1794.08 231.779 1795.73 222.445 1793.82 213.284C1786.31 177.234 1692.15 166.569 1658.32 143.697C1644.53 134.381 1634.18 122.105 1631.18 105.389C1628.44 90.1283 1630.82 68.0705 1639.7 55.0609C1656.12 31.0067 1687.21 22.0268 1714.38 16.9833Z" fill="#314055"/>
<path d="M450.008 19.7947C486.069 19.5149 522.073 21.7909 550.036 48.0091C568.937 65.7263 577.887 89.7991 578.602 115.395C579.298 140.345 573.309 165.593 555.235 183.727C520.978 218.098 466.484 216.954 421.561 216.78C419.39 216.817 417.4 217.737 415.347 218.409C408.91 235.249 413.065 266.088 413.376 284.813L362.252 284.434C360.262 239.727 361.804 194.255 361.792 149.468C361.779 106.963 359.727 63.2699 363.8 20.9824C392.391 19.4401 421.368 20.031 450.008 19.7947ZM414.999 163.106C446.364 163.218 480.148 166.451 507.837 149.064C517.222 138.1 522.739 128.113 521.346 113.263C520.618 105.558 518.628 98.4619 516.053 91.1984C491.672 67.5671 468.194 67.4925 436.276 68.0149L415.055 68.4377C414.732 99.9958 414.713 131.552 414.999 163.106Z" fill="#314055"/>
<path d="M689.345 77.8217C716.182 75.7695 746.502 81.2295 768.712 96.8448C792.402 113.492 806.053 139.692 810.724 167.838C815.463 196.401 811.091 224.964 793.403 248.433C772.033 276.778 743.971 286.846 710.125 290.976C680.166 292.188 651.264 288.015 626.479 269.676C604.12 253.134 589.125 229.373 585.126 201.755C580.903 172.608 587.496 140.799 605.812 117.373C627.213 89.9917 656.42 81.6711 689.345 77.8217ZM706.834 243.514C726.967 235.84 742.932 226.723 751.807 205.791C757.853 191.532 757.106 174.865 750.98 160.774C744.381 145.6 732.21 134.698 716.885 128.691C708.464 125.389 700.397 124.176 691.417 124.207C672.41 129.897 658.124 136.085 648.471 154.53C640.541 169.673 640.305 188.752 645.66 204.777C650.704 219.87 661.122 232.389 675.594 239.229C685.545 243.931 696.019 244.565 706.834 243.514Z" fill="#314055"/>
<path d="M1330.18 77.3923C1351.91 74.9359 1373.25 76.1857 1393.83 84.2639C1397.07 85.5408 1400.23 86.9711 1403.33 88.5548C1406.43 90.1385 1409.44 91.8674 1412.38 93.7414C1415.3 95.6194 1418.13 97.6342 1420.86 99.7859C1423.6 101.942 1426.22 104.222 1428.73 106.627C1431.24 109.035 1433.63 111.56 1435.9 114.201C1438.17 116.842 1440.3 119.586 1442.3 122.435C1444.3 125.283 1446.15 128.22 1447.86 131.247C1449.58 134.277 1451.14 137.382 1452.55 140.562C1460.25 158.317 1463.38 180.673 1456.46 199.106C1434.66 216.027 1337.91 196.058 1305.89 206.27C1300.57 207.961 1300.18 208.552 1297.92 213.278C1298.86 216.232 1298.81 216.655 1300.82 219.627C1317.61 244.521 1355.09 247.711 1380.53 237.283C1386.67 234.77 1399.77 224.547 1405.28 224.049C1407.29 223.869 1409.22 224.913 1411.18 225.342C1423.36 236.636 1434.5 247.997 1445.1 260.789C1429.84 272.916 1413.1 281.89 1394.44 287.493C1361.67 297.331 1322.72 297.281 1292.38 280.217C1266.56 265.702 1247.8 239.863 1240.77 211.22C1240.31 209.35 1239.9 207.47 1239.54 205.579C1239.17 203.689 1238.85 201.79 1238.58 199.883C1238.31 197.98 1238.09 196.069 1237.91 194.149C1237.74 192.234 1237.61 190.314 1237.53 188.391C1237.46 186.467 1237.43 184.541 1237.45 182.613C1237.46 180.69 1237.53 178.766 1237.65 176.843C1237.76 174.923 1237.93 173.005 1238.14 171.09C1238.35 169.175 1238.61 167.268 1238.92 165.369C1239.23 163.47 1239.58 161.577 1239.99 159.691C1240.39 157.809 1240.84 155.939 1241.34 154.082C1241.84 152.22 1242.38 150.373 1242.97 148.541C1243.56 146.708 1244.2 144.893 1244.88 143.093C1245.56 141.29 1246.29 139.507 1247.06 137.745C1247.83 135.979 1248.65 134.236 1249.51 132.515C1250.36 130.791 1251.27 129.089 1252.21 127.41C1253.16 125.735 1254.14 124.083 1255.17 122.453C1273.57 93.9217 1298.67 84.4257 1330.18 77.3923ZM1293.63 165.817C1313.83 166.016 1333.63 165.307 1353.77 163.702L1403.11 162.346C1395.33 146.14 1387.01 132.515 1368.91 126.837C1360.09 124.076 1350.8 123.672 1341.64 124.163C1316.68 132.951 1306.04 141.763 1293.63 165.817Z" fill="#314055"/>
<path d="M1042.75 1.19408C1061.57 0.541107 1080.18 0.547397 1098.99 1.15062C1100.97 56.7587 1098.39 112.466 1099.85 168.105C1128.13 139.984 1150.54 105.644 1181.12 79.8489L1254.16 77.4049C1229.11 110.445 1199.81 143.703 1170.65 173.186C1186.61 197.323 1203.23 221 1220.51 244.217C1233.22 260.591 1247.53 274.869 1262.46 289.216C1236.86 288.776 1211.25 288.691 1185.65 288.961C1165.79 262.058 1146.88 234.505 1128.92 206.301C1119.95 213.446 1111.54 221.357 1103.01 229.018L1102.72 288.04C1084.23 289.688 1063.34 290.124 1044.86 288.482C1041.3 280.124 1039.44 11.455 1042.75 1.19408Z" fill="#314055"/>
<path d="M919.204 77.4237C922.019 77.1874 924.839 76.9863 927.662 76.8204C964.606 74.6625 999.124 83.829 1027.14 108.598C1014.42 120.893 1001.01 132.478 987.767 144.207C981.019 140.152 973.885 136.197 966.615 133.169C949.542 126.042 928.166 126.316 911.367 134.089C899.333 139.661 890.165 149.02 885.65 161.551C879.443 178.777 882.273 201.562 889.954 217.911C914.278 269.707 977.468 226.35 992.425 231.742C1003.42 240.007 1014.19 248.284 1024.57 257.332L1024.87 262.382C1018.05 275.124 1003.05 280.453 989.938 284.527C954.773 295.453 912.132 296.398 879.088 278.445C855.809 265.796 837.486 244.354 830.782 218.521C823.941 192.185 824.836 151.11 839.191 127.659C856.854 98.8038 887.634 84.7432 919.204 77.4237Z" fill="#314055"/>
<path d="M1495.42 43.376L1546.29 44.5762L1545.97 79.3701L1599.99 79.3078L1599.72 131.782C1580.45 133.044 1560.7 132.186 1541.38 132.192C1541.8 158.939 1538.39 186.824 1539.94 213.278C1540.49 222.731 1542.75 230.349 1550.38 236.524C1562.69 246.468 1581.64 240.958 1595.74 238.813C1599.74 247.077 1603.04 255.765 1606.55 264.254C1606.99 270.845 1608.06 276.411 1604.39 282.294C1591.34 292.972 1572.63 291.933 1556.47 291.915C1537.82 291.883 1519.83 287.903 1506.64 273.774C1477.91 242.998 1487.45 173.858 1487.89 133.51L1464.76 129.929C1462.95 113.492 1462.36 97.5227 1462.45 80.987L1492.99 80.9062C1494.09 68.4438 1494.63 55.8632 1495.42 43.376Z" fill="#314055"/>
<path d="M2171.45 75.5269C2197.67 75.788 2222.65 81.4224 2241.47 101.067C2243.94 103.679 2246.24 106.436 2248.37 109.338C2250.5 112.24 2252.43 115.267 2254.17 118.418C2255.91 121.568 2257.45 124.815 2258.77 128.156C2260.11 131.502 2261.22 134.918 2262.11 138.405C2272.12 177.042 2265.78 248.837 2265.19 291.286C2252.34 292.729 2240.26 292.779 2227.38 292.319C2226.47 253.532 2233.74 185.953 2225.18 151.439C2221.77 137.689 2214.19 124.891 2201.62 117.74C2181.28 106.161 2157.88 112.361 2136.95 118.498C2131.36 121.266 2126.01 124.033 2121.53 128.455C2112.06 137.802 2108.29 150.438 2106.58 163.361C2101.53 201.457 2108.03 253.016 2106.78 293.152C2094.33 293.861 2082.04 293.14 2069.6 292.505C2067.69 244.484 2068.82 196.052 2068.6 147.982C2068.5 125.146 2070.36 100.221 2066.43 77.7221C2078.2 77.3489 2090.03 77.5355 2101.81 77.5106L2102.46 109.133C2123.98 86.7394 2141.29 79.2084 2171.45 75.5269Z" fill="#314055"/>
<path d="M2392.85 75.278C2400.34 75.1722 2407.91 75.0291 2415.39 75.6137C2449.61 78.294 2469.18 93.188 2490.95 118.113C2482.74 125.563 2473.77 132.124 2464.97 138.858C2454.83 130.295 2444.18 120.476 2431.88 115.19C2413.45 107.267 2394.15 104.848 2375.29 112.982C2356.5 121.091 2341.56 137.546 2334.24 156.538C2326.16 177.495 2328.39 200.53 2337.98 220.604C2346.06 237.513 2359.38 251.007 2377.29 257.108C2398.79 264.434 2421.02 259.459 2440.88 249.981L2463.22 232.699L2491.06 257.879C2472.03 272.935 2453.91 286.361 2429.68 291.976C2399.6 298.941 2364.37 293.923 2338.64 276.548C2314.6 260.311 2298.1 233.427 2293.03 205.007C2292.39 201.371 2291.95 197.715 2291.68 194.037C2291.42 190.356 2291.34 186.67 2291.45 182.98C2291.56 179.295 2291.85 175.622 2292.32 171.961C2292.8 168.304 2293.46 164.679 2294.3 161.084C2295.14 157.494 2296.16 153.953 2297.36 150.463C2298.56 146.972 2299.93 143.552 2301.47 140.202C2303.01 136.848 2304.71 133.581 2306.58 130.401C2308.45 127.221 2310.48 124.143 2312.66 121.166C2332.27 94.6431 2360.9 80.3836 2392.85 75.278Z" fill="#314055"/>
<path d="M108.345 5.5411C67.0685 20.3302 34.7352 48.8765 17.1927 86.7091L6.87354 108.033L48.4941 109.065C71.1962 109.409 107.657 109.409 129.671 109.065L169.572 108.033L143.086 92.8998C128.639 84.6455 115.912 76.3911 114.881 74.6714C108.001 64.0095 145.494 50.2523 181.267 50.2523C233.207 50.5962 278.267 83.9576 298.217 136.579L303.033 149.305L301.657 130.388C298.905 85.6773 259.005 31.336 214.288 11.044C187.802 -0.993611 134.831 -3.74507 108.345 5.5411Z" fill="#314055"/>
<path d="M6.76939 168.783C11.241 215.902 45.9821 262.677 92.0743 284C161.556 315.986 243.766 290.535 283.322 224.844C289.514 214.87 295.361 202.489 296.393 197.33L298.801 188.043L218.312 187.012C174.283 186.324 137.822 186.324 137.135 186.324C136.447 186.668 149.174 194.578 165.34 203.52C184.259 214.182 194.578 222.093 193.89 225.532C193.546 228.283 184.603 234.13 174.283 238.601C158.461 245.136 150.549 246.168 124.408 245.136C98.6097 244.104 90.3544 242.385 74.8757 234.474C50.4537 221.749 24.9999 195.61 17.4325 174.974C8.48924 150.899 4.70556 148.491 6.76939 168.783Z" fill="#314055"/>
</g>
<defs>
<clipPath id="clip0_623_788">
<rect width="2494" height="398" fill="white"/>
</clipPath>
</defs>
</svg>
