<svg width="505" height="78" viewBox="0 0 505 78" fill="none" xmlns="http://www.w3.org/2000/svg">
<path d="M64.6212 6.1388C73.9252 6.0208 86.9082 4.9628 94.6102 11.2288C94.8549 11.4315 95.0942 11.6401 95.3282 11.8548C95.5615 12.0695 95.7895 12.2901 96.0122 12.5168C96.2348 12.7435 96.4515 12.9758 96.6622 13.2138C96.8729 13.4511 97.0772 13.6938 97.2752 13.9418C97.4732 14.1898 97.6649 14.4428 97.8502 14.7008C98.0355 14.9588 98.2138 15.2215 98.3852 15.4888C98.5572 15.7561 98.7222 16.0275 98.8802 16.3028C99.0382 16.5781 99.1889 16.8575 99.3322 17.1408C99.4755 17.4241 99.6119 17.7108 99.7412 18.0008C99.8699 18.2915 99.9912 18.5848 100.105 18.8808C100.219 19.1775 100.325 19.4768 100.423 19.7788C100.522 20.0808 100.613 20.3848 100.695 20.6908C100.778 20.9975 100.853 21.3061 100.92 21.6168C100.988 21.9268 101.047 22.2388 101.097 22.5528C101.149 22.8661 101.192 23.1805 101.226 23.4958C101.262 23.8118 101.289 24.1281 101.307 24.4448C101.326 24.7641 101.337 25.0834 101.339 25.4028C101.342 25.7221 101.337 26.0415 101.323 26.3608C101.31 26.6801 101.289 26.9991 101.259 27.3178C101.229 27.6358 101.191 27.9531 101.145 28.2698C101.1 28.5858 101.046 28.9005 100.984 29.2138C100.923 29.5278 100.853 29.8398 100.775 30.1498C100.698 30.4598 100.613 30.7678 100.52 31.0738C100.427 31.3791 100.326 31.6821 100.217 31.9828C100.109 32.2835 99.9925 32.5811 99.8692 32.8758C99.7459 33.1705 99.6149 33.4618 99.4762 33.7498C99.3382 34.0385 99.1925 34.3231 99.0392 34.6038C98.8865 34.8845 98.7269 35.1611 98.5602 35.4338C98.3935 35.7065 98.2199 35.9745 98.0392 36.2378C97.8592 36.5018 97.6722 36.7611 97.4782 37.0158C97.2849 37.2698 97.0852 37.5188 96.8792 37.7628C96.6725 38.0075 96.4602 38.2465 96.2422 38.4798C91.3362 43.7148 85.2562 44.4518 78.5202 44.6288L68.0762 44.7518C67.7532 50.1668 68.3792 55.6488 67.3742 61.0138C66.1132 61.6018 64.9062 62.2218 63.5252 62.4818C61.9842 62.7728 61.0982 62.6508 59.8052 61.7598C58.5162 59.0678 58.8102 11.8868 59.7322 6.8748C61.3352 6.4518 62.9772 6.3208 64.6212 6.1388ZM67.8322 36.0608C74.5772 36.2158 83.2262 37.8978 88.7292 33.2648C90.8892 30.5258 92.2202 28.1838 91.7682 24.5558C91.4042 21.6258 90.1952 19.1168 87.7462 17.3898C82.5862 13.7508 73.9492 14.7148 67.9082 14.7308C67.6672 21.7798 67.5572 29.0138 67.8322 36.0608Z" fill="#01316E"/>
<path d="M124.555 20.0356C130.188 19.7896 135.802 20.7846 140.494 24.1026C145.048 27.3236 147.985 32.3056 148.932 37.7586C148.997 38.1146 149.053 38.4722 149.099 38.8316C149.146 39.1902 149.184 39.5502 149.212 39.9116C149.241 40.2722 149.261 40.6336 149.271 40.9956C149.282 41.3576 149.284 41.7192 149.276 42.0806C149.269 42.4426 149.253 42.8043 149.227 43.1656C149.202 43.5269 149.168 43.8872 149.125 44.2466C149.082 44.6059 149.03 44.9639 148.968 45.3206C148.907 45.6779 148.837 46.0332 148.758 46.3866C148.68 46.7399 148.592 47.0909 148.495 47.4396C148.399 47.7882 148.294 48.1346 148.18 48.4786C148.067 48.8226 147.945 49.1632 147.814 49.5006C147.684 49.8386 147.545 50.1729 147.398 50.5036C147.251 50.8342 147.096 51.1609 146.932 51.4836C146.768 51.8069 146.597 52.1256 146.417 52.4396C146.238 52.7542 146.051 53.0642 145.856 53.3696C145.662 53.6742 145.459 53.9742 145.249 54.2696C141.398 59.6756 136.246 61.9446 129.885 62.9656C124.866 63.4376 119.895 62.5996 115.558 59.9046C110.615 56.8336 107.33 51.9586 106.106 46.2996C104.856 40.5196 105.845 34.4936 109.126 29.5546C112.832 23.9746 118.091 21.3066 124.555 20.0356ZM129.712 54.6486C133.275 53.7576 136.247 51.9846 138.148 48.7476C140.073 45.4686 140.503 41.1766 139.459 37.5376C139.345 37.1362 139.21 36.7416 139.055 36.3536C138.901 35.9656 138.728 35.5862 138.536 35.2156C138.344 34.8456 138.134 34.4856 137.906 34.1356C137.678 33.7862 137.433 33.4489 137.171 33.1236C136.909 32.7982 136.632 32.4869 136.339 32.1896C136.047 31.8922 135.74 31.6102 135.418 31.3436C135.097 31.0762 134.763 30.8259 134.417 30.5926C134.071 30.3592 133.715 30.1436 133.347 29.9456C130.484 28.4016 127.801 28.3366 124.643 28.6816C120.9 29.8366 117.726 31.5146 115.872 35.1556C114.233 38.3746 114.108 42.4326 115.266 45.8266C115.402 46.2246 115.556 46.6146 115.73 46.9966C115.904 47.3792 116.097 47.7522 116.308 48.1156C116.52 48.4789 116.748 48.8309 116.994 49.1716C117.241 49.5116 117.504 49.8389 117.782 50.1536C118.061 50.4682 118.355 50.7679 118.663 51.0526C118.972 51.3379 119.294 51.6072 119.629 51.8606C119.965 52.1139 120.312 52.3499 120.67 52.5686C121.029 52.7872 121.398 52.9876 121.776 53.1696C124.302 54.4066 126.931 54.7676 129.712 54.6486Z" fill="#01316E"/>
<path d="M263.282 20C269.105 20.084 274.659 22.11 278.734 26.402C283.689 31.621 284.306 37.932 284.185 44.729C273.619 45.859 262.464 44.412 251.796 44.726C252.333 46.379 252.892 48.042 253.817 49.526C255.403 52.073 257.831 53.889 260.761 54.574C266.542 55.926 271.066 53.63 275.84 50.739C277.527 52.446 279.648 53.927 281.477 55.505C277.409 59.444 272.159 62.357 266.476 62.975C266.108 63.0137 265.738 63.043 265.367 63.063C264.997 63.0837 264.627 63.095 264.256 63.097C263.886 63.099 263.515 63.092 263.144 63.076C262.774 63.06 262.404 63.035 262.034 63.001C261.665 62.967 261.297 62.924 260.93 62.872C260.563 62.8193 260.197 62.758 259.833 62.688C259.469 62.6174 259.107 62.538 258.746 62.45C258.386 62.362 258.029 62.2653 257.673 62.16C257.318 62.0547 256.965 61.9403 256.615 61.817C256.265 61.6943 255.919 61.563 255.575 61.423C255.232 61.283 254.892 61.1347 254.556 60.978C254.22 60.822 253.887 60.6573 253.559 60.484C253.231 60.3113 252.908 60.1307 252.589 59.942C252.27 59.7533 251.956 59.5567 251.646 59.352C251.336 59.148 251.032 58.9363 250.733 58.717C250.434 58.4977 250.14 58.2713 249.852 58.038C245.545 54.493 243.574 49.478 243.131 44.042C242.639 37.995 243.914 31.482 248.026 26.831C252.032 22.299 257.427 20.452 263.282 20ZM251.673 37.732C256.405 37.82 261.138 37.866 265.871 37.87C268.488 37.918 272.637 38.538 275.048 37.665C275.507 37.036 275.828 36.719 275.659 35.872C275.09 33.022 270.72 29.93 268.274 28.791C266.137 27.797 264.372 27.678 262.045 27.82C258.598 28.649 255.679 29.675 253.681 32.834C252.734 34.33 252.204 36.056 251.673 37.732Z" fill="#01316E"/>
<path d="M341.769 5.08253C351.085 4.53553 357.546 6.67155 364.832 12.5686C363.066 14.8379 361.241 17.0585 359.358 19.2305C355.288 16.1355 351.187 13.7495 345.93 13.4495C342.522 13.2545 339.36 13.8365 336.8 16.2515C335.696 17.2935 334.326 18.8786 334.446 20.5086C334.813 25.5056 349.427 28.7466 353.5 30.2326C356.424 31.2996 359.458 32.5246 361.944 34.4346C364.814 36.6386 366.74 39.7816 367.103 43.4086C367.53 47.6716 365.932 52.3866 363.205 55.6676C359.237 60.4406 352.885 61.9015 347.008 62.5265C340.108 62.5685 333.272 60.7556 327.481 56.9176C326.009 55.9416 325.107 55.0206 324.719 53.2836C325.814 51.0106 327.536 48.9365 329.019 46.8955C335.228 51.0745 340.95 54.8686 348.882 53.5776C351.529 53.1466 354.776 52.0155 356.327 49.6655C357.394 48.0495 357.539 45.6895 357.017 43.8585C356.562 42.2645 355.43 40.9996 354.063 40.1076C348.572 36.5236 338.336 35.4796 331.763 31.5386C328.877 29.8086 326.578 27.4365 325.844 24.0665C325.017 20.2725 326.112 15.0706 328.357 11.9096C331.504 7.47856 336.674 5.89353 341.769 5.08253Z" fill="#01316E"/>
<path d="M207.939 3.05543C208.86 3.00043 209.612 2.88343 210.457 3.33543C212.096 7.27943 210.953 32.7404 210.859 38.6504C217.522 32.8924 223.622 26.4824 230.163 20.5794C233.568 20.5584 236.917 20.5864 240.316 20.8514C237.532 25.3564 228.286 33.4174 224.039 37.6094L237.788 56.0004C238.811 57.2784 240.286 58.8294 240.505 60.4724C240.128 60.8974 239.755 61.2764 239.28 61.5954C237.817 62.5754 236.213 62.9294 234.485 62.5344C228.923 61.2604 221.127 48.9554 218.102 44.0374C215.706 45.8354 213.239 47.5844 210.975 49.5464C211.052 52.1184 211.299 54.8504 211.082 57.4104C210.962 58.8154 210.474 60.5684 209.203 61.3614C208.037 62.0884 206.121 62.2244 204.796 62.0154C204.01 61.8904 202.975 61.4814 202.587 60.7374C201.529 58.7074 202.031 8.16443 202.674 5.67143C204.065 3.95643 205.864 3.56043 207.939 3.05543Z" fill="#01316E"/>
<path d="M438.034 20.084C442.413 19.786 446.706 20.203 450.514 22.601C453.965 24.774 456.061 28.18 456.932 32.12C458.281 38.223 457.47 45.278 457.538 51.538C457.564 53.997 457.974 56.723 457.725 59.147C457.647 59.903 457.414 60.637 456.926 61.235C456.134 62.208 454.81 62.598 453.601 62.651C451.897 62.726 450.502 62.338 449.218 61.219C447.287 56.241 448.776 44.964 448.608 39.066C448.521 36.004 447.761 32.725 445.337 30.652C442.669 28.37 439.173 28.391 435.884 28.699C434.167 29.048 432.62 29.781 431.327 30.972C425.9 35.971 428.371 53.457 427.826 60.677L427.774 61.326C427.37 61.461 426.967 61.6 426.557 61.717C424.457 62.316 421.876 62.936 419.864 61.827C419.611 61.29 419.503 60.856 419.44 60.265C418.887 55.096 419.369 49.546 419.344 44.324C419.313 37.968 418.804 31.323 419.281 24.997C419.34 24.212 419.424 22.837 420.018 22.266C421.448 20.891 424.654 21.1091 426.539 21.0171C427.188 22.3121 427.676 23.667 428.188 25.019C431.24 22.183 433.981 20.879 438.034 20.084Z" fill="#01316E"/>
<path d="M405.621 20.0489C407.365 19.9859 409.228 19.8949 410.916 20.4189C411.825 20.7019 412.125 21.0039 412.574 21.8109C411.528 27.6959 407.041 35.7379 404.577 41.3939C400.656 50.3969 397.115 59.7369 392.553 68.4389C391.311 70.8099 389.828 73.2049 387.993 75.1679C386.18 77.1059 383.4 77.2359 380.857 77.2609C379.697 77.2729 378.79 77.2149 377.964 76.3699C378.346 72.9139 382.826 68.4519 384.682 65.3989C385.477 64.0909 386.074 62.6129 386.685 61.2109C385.108 57.5956 383.508 53.9903 381.887 50.3949C380.033 47.0179 378.711 43.1109 377.224 39.5399C374.722 33.5339 372.005 27.5149 370 21.3249C370.107 21.2899 370.213 21.2549 370.32 21.2219C372.626 20.5089 376.113 19.6549 378.308 21.0339C379.19 21.5879 379.706 22.7579 380.151 23.6639C381.891 27.2149 383.088 31.1339 384.612 34.7959C386.89 40.2669 389.658 45.7409 391.407 51.3989C394.208 45.1999 402.325 23.8239 405.621 20.0489Z" fill="#01316E"/>
<path d="M485.643 20.0311C485.95 20.0121 486.257 19.9991 486.564 20.0001C493.536 20.0231 498.78 22.562 503.663 27.383C502.058 29.767 500.311 31.6271 498.091 33.4281C495.394 31.2841 492.59 29.1541 489.105 28.5371C485.655 27.9261 481.99 29.0541 479.239 31.1701C476.758 33.0781 475.369 35.7641 474.959 38.8421C474.44 42.7251 475.282 46.8051 477.774 49.8881C478.033 50.2121 478.307 50.522 478.596 50.818C478.886 51.1147 479.19 51.3961 479.508 51.6621C479.826 51.9281 480.156 52.1774 480.499 52.4101C480.842 52.6427 481.196 52.8577 481.56 53.055C481.924 53.2524 482.298 53.4311 482.68 53.5911C483.062 53.7511 483.452 53.8914 483.848 54.012C484.245 54.1334 484.646 54.2344 485.052 54.3151C485.459 54.3957 485.869 54.4557 486.281 54.495C491.394 55.004 495.14 52.7111 498.953 49.6621C500.933 51.4971 502.686 53.2171 504.33 55.3671C500.756 59.1441 496.093 62.0281 490.911 62.8681C485.116 63.8071 478.92 62.0761 474.176 58.6821C473.902 58.4861 473.632 58.2831 473.368 58.0731C473.104 57.8637 472.845 57.6477 472.591 57.4251C472.338 57.2024 472.09 56.9734 471.848 56.7381C471.606 56.5027 471.37 56.2617 471.14 56.0151C470.91 55.7684 470.687 55.516 470.469 55.258C470.252 55 470.041 54.7367 469.837 54.4681C469.633 54.1994 469.436 53.9257 469.246 53.6471C469.056 53.3684 468.872 53.0854 468.696 52.7981C468.52 52.5101 468.351 52.2181 468.189 51.9221C468.028 51.6261 467.874 51.3261 467.727 51.0221C467.581 50.7181 467.442 50.4107 467.31 50.1001C467.179 49.7894 467.056 49.4754 466.94 49.1581C466.825 48.8414 466.718 48.5217 466.618 48.1991C466.519 47.8764 466.428 47.5517 466.344 47.2251C466.261 46.8984 466.186 46.5697 466.119 46.2391C466.053 45.9077 465.994 45.5754 465.944 45.2421C465.052 39.4601 466.625 32.7011 470.185 28.0411C474 23.0461 479.616 20.8121 485.643 20.0311Z" fill="#01316E"/>
<path d="M173.866 20.1925C174.59 20.1185 175.315 20.0638 176.042 20.0285C183.185 19.7075 188.77 22.1075 194.022 26.8605C192.142 29.0915 189.777 30.9905 187.573 32.8945C184.928 31.0595 182.436 29.2245 179.2 28.5935C175.938 27.9585 172.453 28.8585 169.767 30.7755C167.026 32.7305 165.284 35.6425 164.724 38.9495C164.131 42.4545 164.658 46.3495 166.799 49.2635C168.973 52.2225 172.56 53.8445 176.116 54.3765C180.605 55.0495 183.757 53.3385 187.252 50.8025L188.254 50.2325C190.59 50.8615 192.498 53.3455 194.106 55.0565C191.236 58.2135 187.825 60.7955 183.721 62.1085C178.146 63.8915 171.786 63.0115 166.662 60.2845C161.938 57.7705 158.179 53.6255 156.687 48.4355C155.087 42.8665 155.522 35.9485 158.414 30.8865C161.718 25.1015 167.656 21.9025 173.866 20.1925Z" fill="#01316E"/>
<path d="M299.872 9.298L304.955 9C305.069 12.975 305.018 16.96 305.021 20.937C308.874 20.889 312.686 20.864 316.534 21.114L316.015 28.847C312.36 29.177 308.614 29.067 304.942 29.108C304.924 35.15 304.043 43.993 305.342 49.748C307.104 57.553 311.639 51.286 315.658 54.085C317.447 55.331 317.647 57.641 318.079 59.612C315.676 61.191 313.476 62.399 310.541 62.563C306.843 62.77 302.461 61.291 299.806 58.679C298.221 57.119 297.206 55.159 296.693 53.005C295.259 46.989 296.215 35.378 296.274 28.835C294.226 28.912 292.163 28.856 290.113 28.852C289.931 26.324 290.001 23.778 290.014 21.244L295.933 21.081C296.277 17.563 296.212 13.993 296.251 10.461L299.872 9.298Z" fill="#01316E"/>
<path d="M15.4464 0.472721C23.8164 -0.427279 33.8854 -0.565271 40.8054 4.93073C41.0801 5.14806 41.3491 5.37206 41.6124 5.60273C41.8758 5.83339 42.1331 6.07073 42.3844 6.31473C42.6358 6.55873 42.8811 6.80873 43.1204 7.06473C43.3591 7.32073 43.5914 7.5824 43.8174 7.84973C44.0428 8.11773 44.2614 8.39104 44.4734 8.66971C44.6854 8.94838 44.8904 9.2324 45.0884 9.52173C45.2864 9.8104 45.4768 10.104 45.6594 10.4027C45.8428 10.7014 46.0181 11.0044 46.1854 11.3117C46.3534 11.619 46.5134 11.9304 46.6654 12.2457C46.8174 12.5611 46.9618 12.8801 47.0984 13.2027C47.2344 13.5254 47.3624 13.8511 47.4824 14.1797C47.6018 14.5091 47.7131 14.8411 47.8164 15.1757C47.9198 15.5104 48.0144 15.8474 48.1004 16.1867C48.1864 16.526 48.2641 16.8674 48.3334 17.2107C48.4021 17.5541 48.4624 17.8991 48.5144 18.2457C48.5664 18.5917 48.6094 18.9391 48.6434 19.2877C49.2604 25.2737 47.7064 31.6517 43.7684 36.2927C37.8744 43.2387 30.6294 43.0737 22.4294 43.8317C22.5104 49.0037 22.5294 54.1207 21.9244 59.2657C19.2614 60.6987 16.5164 61.8607 13.6844 62.9097C13.3574 55.9547 13.1234 41.5537 14.3894 35.0717C20.5304 34.5527 29.9034 36.3797 35.1004 32.7737C38.2414 30.5947 39.3144 27.3947 39.9214 23.8077C39.9888 22.2304 39.9408 20.6567 39.7774 19.0867C39.4834 16.2477 38.0464 13.4697 35.7644 11.7277C31.7394 8.65473 22.6224 8.88972 17.7054 9.58972C15.2904 9.93372 11.8314 10.8857 10.5454 13.2057C6.62345 20.2827 12.2214 63.6007 8.39245 67.2637C7.70945 67.9167 6.99244 68.0207 6.09044 67.8927C3.97244 67.5927 2.28544 65.6197 1.09344 64.0397C0.627443 54.0667 0.855439 44.0137 0.822439 34.0277C0.800439 27.1457 0.0614437 19.3617 1.31344 12.6257C1.73444 10.3637 2.66744 8.49073 4.09444 6.68073C7.05544 2.92173 10.7764 1.00672 15.4464 0.472721Z" fill="#0896D1"/>
<path d="M15.676 19.4738C17.176 19.2918 18.64 19.4248 19.994 20.1398C21.812 21.0998 23.12 22.9578 23.675 24.9088C24.116 26.4628 24.019 28.2108 23.185 29.6238C22.308 31.1088 21.217 31.4198 19.634 31.7688C17.548 31.7808 15.599 31.6298 13.536 31.3428C12.312 29.3718 10.945 27.0838 11.394 24.6728C11.835 22.3088 13.849 20.8038 15.676 19.4738Z" fill="#0896D1"/>
</svg>
