<svg width="298" height="298" viewBox="0 0 298 298" fill="none" xmlns="http://www.w3.org/2000/svg">
<path d="M102.345 5.5411C61.0685 20.3302 28.7352 48.8765 11.1927 86.7091L0.873535 108.033L42.4941 109.065C65.1962 109.409 101.657 109.409 123.671 109.065L163.572 108.033L137.086 92.8998C122.639 84.6455 109.912 76.3911 108.881 74.6714C102.001 64.0095 139.494 50.2523 175.267 50.2523C227.207 50.5962 272.267 83.9576 292.217 136.579L297.033 149.305L295.657 130.388C292.905 85.6773 253.005 31.336 208.288 11.044C181.802 -0.993611 128.831 -3.74507 102.345 5.5411Z" fill="#314055"/>
<path d="M0.769387 168.783C5.24101 215.902 39.9821 262.677 86.0743 284C155.556 315.986 237.766 290.535 277.322 224.844C283.514 214.87 289.361 202.489 290.393 197.33L292.801 188.043L212.312 187.012C168.283 186.324 131.822 186.324 131.135 186.324C130.447 186.668 143.174 194.578 159.34 203.52C178.259 214.182 188.578 222.093 187.89 225.532C187.546 228.283 178.603 234.13 168.283 238.601C152.461 245.136 144.549 246.168 118.408 245.136C92.6097 244.104 84.3544 242.385 68.8757 234.474C44.4537 221.749 18.9999 195.61 11.4325 174.974C2.48924 150.899 -1.29444 148.491 0.769387 168.783Z" fill="#314055"/>
</svg>
