<svg width="250" height="353" viewBox="0 0 250 353" fill="none" xmlns="http://www.w3.org/2000/svg">
<path d="M77.0959 2.45182C120.519 -2.21613 172.757 -2.93185 208.658 25.5738C210.083 26.701 211.478 27.8628 212.844 29.0592C214.21 30.2556 215.545 31.4866 216.849 32.7521C218.153 34.0176 219.426 35.3143 220.668 36.6421C221.906 37.9698 223.111 39.327 224.284 40.7136C225.453 42.1036 226.587 43.5211 227.687 44.9665C228.787 46.4118 229.85 47.8849 230.878 49.3856C231.905 50.8828 232.892 52.4058 233.84 53.9549C234.791 55.504 235.701 57.0755 236.569 58.6695C237.44 60.2635 238.27 61.8784 239.059 63.5139C239.848 65.1494 240.596 66.804 241.305 68.4775C242.011 70.1511 242.675 71.8401 243.298 73.5448C243.917 75.2529 244.494 76.9749 245.03 78.7107C245.567 80.4464 246.058 82.1943 246.504 83.9543C246.95 85.7142 247.353 87.4847 247.713 89.2654C248.069 91.0462 248.382 92.8356 248.652 94.6336C248.921 96.4282 249.144 98.2296 249.321 100.038C252.522 131.085 244.46 164.165 224.029 188.236C193.452 224.263 155.865 223.407 113.323 227.338C113.744 254.164 113.842 280.703 110.704 307.389C96.888 314.821 82.647 320.848 67.9546 326.289C66.2582 290.216 65.0442 215.523 71.6122 181.904C103.471 179.212 152.098 188.688 179.06 169.985C195.356 158.683 200.922 142.086 204.071 123.481C204.421 115.3 204.172 107.139 203.324 98.9956C201.799 84.2708 194.344 69.8623 182.505 60.8272C161.623 44.8887 114.325 46.1076 88.8154 49.7382C76.2865 51.5224 58.3414 56.4601 51.6696 68.493C31.3224 105.199 60.3647 329.873 40.4999 348.871C36.9565 352.258 33.2368 352.797 28.5572 352.134C17.5691 350.578 8.81698 340.344 2.63292 332.15C0.215327 280.423 1.39816 228.282 1.22696 176.489C1.11283 140.794 -2.72106 100.422 3.77428 65.4848C5.95842 53.7527 10.7988 44.0382 18.202 34.6504C33.5636 15.1539 52.8681 5.22147 77.0959 2.45182Z" fill="#0896D1"/>
<path d="M78.0142 100.977C85.7922 100.031 93.3835 100.722 100.405 104.438C109.831 109.427 116.614 119.084 119.492 129.224C121.778 137.301 121.276 146.386 116.951 153.729C112.403 161.447 106.746 163.064 98.5378 164.877C87.7211 164.94 77.6149 164.155 66.9176 162.663C60.5707 152.42 53.4824 140.528 55.8106 127.997C58.0973 115.711 68.5406 107.889 78.0142 100.977Z" fill="#0896D1"/>
</svg>
