<svg width="250" height="238" viewBox="0 0 250 238" fill="none" xmlns="http://www.w3.org/2000/svg">
<path d="M145.561 68.6096C149.075 68.8461 151.648 69.4344 154.691 71.1771C165.722 77.4916 174.295 87.3871 183.904 95.5934C191.727 102.271 200.152 108.27 207.848 115.094C214.628 121.105 220.856 128.588 221.065 138.117C221.48 156.85 203.307 180.543 191.324 193.932C168.838 219.055 137.309 236.213 103.494 237.68C62.6376 239.454 38.9825 218.742 10.5106 192.397C6.39544 188.211 3.25202 183.727 0 178.837C0.838064 176.401 1.70396 174.017 2.76476 171.672C7.91287 160.264 14.9348 156.388 26.2083 152.185C44.37 163.986 58.7006 185.266 78.0958 193.819C95.9179 201.682 117.284 200.367 134.984 192.803C156.893 183.442 175.016 165.898 184.007 143.649C161.526 125.024 140.221 105.334 117.262 87.176C125.813 78.125 133.996 72.7142 145.561 68.6096Z" fill="#2962FF"/>
<path d="M146.334 0.202731C149.435 -0.00184112 152.54 -0.051602 155.647 0.0534993C158.754 0.160477 161.849 0.420438 164.93 0.833336C168.013 1.24811 171.067 1.81396 174.093 2.5309C177.12 3.24972 180.105 4.11684 183.047 5.13219C201.894 11.4298 240.693 35.6997 248.628 53.4243C250.193 56.9208 250.557 60.9297 248.998 64.5022C246.545 70.1242 241.703 75.1184 235.792 76.8469C216.405 82.5055 194.003 55.0994 178.406 46.3835C177.461 45.8448 176.502 45.3307 175.53 44.8408C174.559 44.3528 173.576 43.8892 172.581 43.45C171.586 43.0127 170.58 42.6008 169.563 42.2142C168.548 41.8275 167.523 41.4682 166.489 41.136C165.453 40.8038 164.411 40.4979 163.362 40.2182C162.312 39.9386 161.256 39.6871 160.194 39.4637C159.13 39.2404 158.063 39.0442 156.992 38.8753C155.919 38.7064 154.843 38.5657 153.762 38.453C152.684 38.3386 151.603 38.2532 150.519 38.1969C149.435 38.1406 148.35 38.1114 147.264 38.1096C146.178 38.1096 145.093 38.1368 144.009 38.1913C142.925 38.2476 141.844 38.3311 140.765 38.4418C139.685 38.5544 138.608 38.6942 137.536 38.8612C136.463 39.0283 135.394 39.2235 134.331 39.4468C133.269 39.6702 132.213 39.9207 131.162 40.1985C130.112 40.4744 129.07 40.7784 128.036 41.1106C103.37 48.8862 87.3826 69.5302 76.2901 91.9674C82.1955 98.2285 88.3933 104.259 94.4379 110.385C110.216 124.751 127.991 138.635 141.801 154.907C135.191 160.267 128.785 165.352 120.479 167.792C113.243 169.918 104.445 170.101 97.7512 166.25C85.8624 159.406 35.5702 113.329 33.9275 100.742C32.6579 90.9962 57.6801 56.0397 64.0143 47.7939C84.9826 20.492 112.413 4.45089 146.334 0.202731Z" fill="#2962FF"/>
</svg>
